<svg xmlns="http://www.w3.org/2000/svg" width="176.526" height="42.967" viewBox="0 0 176.526 42.967">
  <g id="Groupe_16425" data-name="Groupe 16425" transform="translate(-1 -21)">
    <g id="Groupe_16424" data-name="Groupe 16424" transform="translate(1 21)">
      <g id="Groupe_16426" data-name="Groupe 16426" transform="translate(68.721 9.293)">
        <path id="Tracé_1902" data-name="Tracé 1902" d="M277.026,28.309a12.573,12.573,0,0,1,8.967,3.32l-2.122,3.285a10.713,10.713,0,0,0-6.641-2.567c-5.134,0-8.146,3.833-8.146,8.351,0,4.621,3.115,8.694,8.18,8.694a10.469,10.469,0,0,0,7.051-3.081l2.327,3.183a13.071,13.071,0,0,1-9.547,3.936c-7.427,0-12.561-5.51-12.561-12.663a12.214,12.214,0,0,1,12.493-12.458" transform="translate(-264.533 -28.309)" fill="#3290ce"/>
        <path id="Tracé_1903" data-name="Tracé 1903" d="M345.538,29.614h4.312v3.867h-4.312Zm0,6.845h4.346V53.914h-4.346Z" transform="translate(-320.041 -29.203)" fill="#3290ce"/>
        <path id="Tracé_1904" data-name="Tracé 1904" d="M374.569,50.461h4.175V52.48a10.792,10.792,0,0,1-.069,1.2h.069a6.77,6.77,0,0,1,6.195-3.628c3.868,0,6.059,2.019,6.059,6.641V67.914h-4.312V57.58c0-2.122-.548-3.56-2.773-3.56a4.819,4.819,0,0,0-4.69,3.56,7.361,7.361,0,0,0-.308,2.327v8.007h-4.346Z" transform="translate(-339.934 -43.205)" fill="#3290ce"/>
        <path id="Tracé_1905" data-name="Tracé 1905" d="M438.694,44.737h-2.259V41.278H438.8V36.247h4.244v5.031h3.97v3.459h-3.97v6.777c0,2.875,2.259,3.286,3.457,3.286a4,4,0,0,0,.787-.069v3.8a7.494,7.494,0,0,1-1.335.1c-2.43,0-7.256-.719-7.256-6.572Z" transform="translate(-382.327 -33.748)" fill="#3290ce"/>
        <path id="Tracé_1906" data-name="Tracé 1906" d="M487.662,50.057c5.339,0,9.617,3.8,9.617,9.138,0,5.373-4.279,9.138-9.583,9.138-5.339,0-9.617-3.765-9.617-9.138,0-5.339,4.278-9.138,9.583-9.138m.034,14.58a5.447,5.447,0,1,0-5.2-5.442,5.189,5.189,0,0,0,5.2,5.442" transform="translate(-410.864 -43.212)" fill="#3290ce"/>
        <path id="Tracé_1907" data-name="Tracé 1907" d="M555.62,50.057c5.339,0,9.617,3.8,9.617,9.138,0,5.373-4.279,9.138-9.583,9.138-5.34,0-9.617-3.765-9.617-9.138,0-5.339,4.278-9.138,9.583-9.138m.034,14.58a5.447,5.447,0,1,0-5.2-5.442,5.189,5.189,0,0,0,5.2,5.442" transform="translate(-457.431 -43.212)" fill="#3290ce"/>
      </g>
      <path id="Tracé_1929" data-name="Tracé 1929" d="M51.861,29.771A16.589,16.589,0,0,0,22.518,19.556V24.4h-8.48V21.353A8.7,8.7,0,0,0,7.72,29.079a12.431,12.431,0,0,0,4.718,23.933H49.831a11.708,11.708,0,0,0,2.03-23.239" transform="translate(0 -10.044)" fill="#3290ce"/>
      <rect id="Rectangle_192" data-name="Rectangle 192" width="1.736" height="1.736" transform="translate(15.281 16.678)" fill="#fff"/>
      <rect id="Rectangle_193" data-name="Rectangle 193" width="2.12" height="2.12" transform="translate(22.744 14.697)" fill="#fff"/>
      <path id="Tracé_1930" data-name="Tracé 1930" d="M70,62.835a4.65,4.65,0,0,0-1,.112l0-.006c-3.266.713-6.578-.783-6.153-6.055l-.007.009c.016-.2.031-.4.031-.6A7.365,7.365,0,0,0,48.258,55.03l0-.01c-1.036,5.893-9.258,8.964-13.139,7l.015.034a5.3,5.3,0,0,0-2.438-.612,5.357,5.357,0,1,0,5.2,6.605l.009.02c1.031-4.227,8.712-8.474,13.861-5.427l0-.011a7.3,7.3,0,0,0,6.19.619l-.007.009c4.995-1.741,7.276,1.086,7.411,4.428l.014-.017A4.651,4.651,0,1,0,70,62.835" transform="translate(-20.224 -36.215)" fill="#fff"/>
      <rect id="Rectangle_194" data-name="Rectangle 194" width="3.275" height="3.275" transform="translate(26.366 7.655)" fill="#fff"/>
      <rect id="Rectangle_195" data-name="Rectangle 195" width="4.336" height="4.336" transform="translate(20.576 1.513)" fill="#3290ce"/>
      <rect id="Rectangle_196" data-name="Rectangle 196" width="3.791" height="3.791" transform="translate(16.382 8.222)" fill="#3290ce"/>
      <rect id="Rectangle_197" data-name="Rectangle 197" width="2.274" height="2.274" transform="translate(13.577 3.575)" fill="#3290ce"/>
      <rect id="Rectangle_198" data-name="Rectangle 198" width="2.637" height="2.637" transform="translate(27.26)" fill="#3290ce"/>
    </g>
  </g>
</svg>
